<svg width="78" height="78" xmlns="http://www.w3.org/2000/svg"><g fill="none" fill-rule="evenodd"><rect fill="#E9EEFD" width="78" height="78" rx="16.25"/><g fill-rule="nonzero"><path d="M39.05 39.813c-4.703 0-8.53-3.828-8.53-8.532 0-4.704 3.827-8.531 8.53-8.531 4.705 0 8.532 3.827 8.532 8.531 0 4.704-3.827 8.532-8.531 8.532zm0-14.016a5.49 5.49 0 0 0-5.484 5.484 5.49 5.49 0 0 0 5.485 5.485 5.49 5.49 0 0 0 5.484-5.485 5.49 5.49 0 0 0-5.484-5.484z" fill="#243F5F"/><path d="M24.276 55.243a1.523 1.523 0 0 1-1.523-1.523c0-2.716.689-5.41 1.992-7.793a16.14 16.14 0 0 1 9.687-7.797 16.14 16.14 0 0 1 13.594 2.085 1.523 1.523 0 1 1-1.7 2.528 13.11 13.11 0 0 0-11.037-1.69 13.115 13.115 0 0 0-7.87 6.336 13.24 13.24 0 0 0-1.62 6.331c0 .842-.681 1.523-1.523 1.523z" fill="#243F5F"/><path d="M53.744 46.508h-.004l-6.568-.015a1.524 1.524 0 0 1 .004-3.047h.003l6.568.015a1.524 1.524 0 0 1-.003 3.047zm0 4.372h-.005l-9.174-.024a1.523 1.523 0 0 1 .004-3.047h.004l9.175.024a1.523 1.523 0 0 1-.004 3.047zm0 4.366h-.01l-3.769-.022a1.524 1.524 0 0 1 .009-3.047h.01l3.769.022a1.524 1.524 0 0 1-.01 3.047z" fill="#226DFF"/></g></g></svg>