<?xml version="1.0" encoding="UTF-8"?>
<svg width="78px" height="78px" viewBox="0 0 78 78" version="1.1" xmlns="http://www.w3.org/2000/svg" xmlns:xlink="http://www.w3.org/1999/xlink">
    <title>编组 3</title>
    <g id="v2-更新" stroke="none" stroke-width="1" fill="none" fill-rule="evenodd">
        <g id="钱包交易首页（鼠标悬停在连接dapp&amp;账户设置按钮）" transform="translate(-608.000000, -116.000000)">
            <g id="编组-3" transform="translate(608.000000, 116.000000)">
                <rect id="矩形" fill="#E9EEFD" x="0" y="0" width="78" height="78" rx="16.25"></rect>
                <g id="编组" transform="translate(22.752945, 22.750000)" fill-rule="nonzero">
                    <path d="M16.2978359,17.0625 C11.5936641,17.0625 7.76658594,13.2354219 7.76658594,8.53125 C7.76658594,3.82707813 11.5936641,0 16.2978359,0 C21.0019062,0 24.8290859,3.82707813 24.8290859,8.53125 C24.8290859,13.2354219 21.0019062,17.0625 16.2978359,17.0625 Z M16.2978359,3.046875 C13.2737109,3.046875 10.8134609,5.507125 10.8134609,8.53125 C10.8134609,11.555375 13.2737109,14.015625 16.2978359,14.015625 C19.3218594,14.015625 21.7822109,11.555375 21.7822109,8.53125 C21.7822109,5.507125 19.3218594,3.046875 16.2978359,3.046875 Z" id="形状" fill="#243F5F"></path>
                    <path d="M1.5234375,32.4935 L1.52323438,32.4935 C0.681890625,32.4935 0,31.8112031 0,30.9698594 C0.0003046875,28.2543828 0.689101562,25.5595234 1.99184375,23.1769688 C4.073875,19.3690859 7.51410156,16.5998828 11.678875,15.3796094 C15.8436484,14.1591328 20.2341953,14.6338359 24.0421797,16.7158672 C24.463285,16.9471293 24.8738698,17.1970519 25.2727109,17.4648906 C25.9709531,17.9342109 26.1565078,18.8807734 25.6870859,19.5790156 C25.2178672,20.2772578 24.2713047,20.4629141 23.5729609,19.9933906 C23.2496931,19.7764506 22.9169513,19.5739726 22.5757187,19.3865547 C19.4865937,17.6974688 15.9194141,17.3118359 12.5356562,18.3034922 C9.15189844,19.2950469 6.35679687,21.5448594 4.66517187,24.6386563 C3.6051232,26.5808025 3.04874039,28.7576581 3.046875,30.9702656 C3.04677344,31.8115078 2.36467969,32.4935 1.5234375,32.4935 L1.5234375,32.4935 Z" id="路径" fill="#243F5F"></path>
                    <path d="M30.9906797,23.7583125 L30.9870234,23.7583125 L24.4192812,23.7430781 C23.5779375,23.7410469 22.8974687,23.0574297 22.8993943,22.2160859 C22.9014297,21.3760625 23.5830156,20.6962031 24.4227344,20.6962031 L24.4263906,20.6962031 L30.9941328,20.7114375 C31.8354766,20.7134687 32.5159453,21.3970859 32.5140197,22.2384297 C32.5119844,23.0784531 31.8303984,23.7583125 30.9906797,23.7583125 L30.9906797,23.7583125 Z M30.9906797,28.1300703 L30.9865156,28.1300703 L21.8120703,28.1056953 C20.9707266,28.1034609 20.2904609,27.4195391 20.2926898,26.5781953 C20.2949297,25.7381719 20.9765156,25.0588203 21.8160312,25.0588203 L21.8201953,25.0588203 L30.9946406,25.0831953 C31.8359844,25.0854297 32.51625,25.7693516 32.5140211,26.6106953 C32.5117812,27.4506172 31.8301953,28.1300703 30.9906797,28.1300703 L30.9906797,28.1300703 Z M30.9907812,32.4961406 L30.9815391,32.4961406 L27.21225,32.4738984 C26.3710078,32.4689219 25.692875,31.7827656 25.6978243,30.9414219 C25.7028281,30.1032266 26.3840078,29.4270234 27.2210859,29.4270234 L27.2303281,29.4270234 L30.9996172,29.4492656 C31.8408594,29.4542422 32.5189922,30.1403984 32.5140428,30.9817422 C32.5090391,31.8199375 31.8278594,32.4961406 30.9907812,32.4961406 Z" id="形状" fill="#226DFF"></path>
                </g>
            </g>
        </g>
    </g>
</svg>