<?xml version="1.0" encoding="UTF-8"?>
<svg width="78px" height="78px" viewBox="0 0 78 78" version="1.1" xmlns="http://www.w3.org/2000/svg" xmlns:xlink="http://www.w3.org/1999/xlink">
    <title>编组 4</title>
    <g id="v2-更新" stroke="none" stroke-width="1" fill="none" fill-rule="evenodd">
        <g id="钱包交易首页（鼠标悬停在连接dapp&amp;账户设置按钮）" transform="translate(-522.000000, -116.000000)">
            <g id="编组-4" transform="translate(522.000000, 116.000000)">
                <g id="编组-3" fill="#E9EEFD">
                    <rect id="矩形" x="0" y="0" width="78" height="78" rx="16.25"></rect>
                </g>
                <g id="连接-connect" transform="translate(22.000000, 23.000000)" fill="#AAAAAA" fill-rule="nonzero">
                    <path d="M9.12896368,16.1176471 C8.8081775,16.1176471 8.49095561,15.9964743 8.24858383,15.7505648 C7.76027598,15.2623098 7.76027598,14.4746867 8.24858383,13.9864317 L13.9870922,8.24854421 C14.4754,7.76028919 15.2631083,7.76028919 15.7514162,8.24854421 C16.239724,8.73679923 16.239724,9.5244223 15.7514162,10.0126773 L10.0129078,15.7505648 C9.76697175,15.9964743 9.44974986,16.1176471 9.12896368,16.1176471 L9.12896368,16.1176471 Z" id="路径" transform="translate(12.000000, 12.000000) scale(-1, 1) translate(-12.000000, -12.000000) "></path>
                    <path d="M18.1289637,25.1176471 C17.8081775,25.1176471 17.4909556,24.9964743 17.2485838,24.7505648 C16.760276,24.2623098 16.760276,23.4746867 17.2485838,22.9864317 L22.9870922,17.2485442 C23.4754,16.7602892 24.2631083,16.7602892 24.7514162,17.2485442 C25.239724,17.7367992 25.239724,18.5244223 24.7514162,19.0126773 L19.0129078,24.7505648 C18.7669718,24.9964743 18.4497499,25.1176471 18.1289637,25.1176471 L18.1289637,25.1176471 Z" id="路径" transform="translate(21.000000, 21.000000) scale(-1, 1) translate(-21.000000, -21.000000) "></path>
                    <path d="M7.39216621,33 C7.2073317,33 7.01907432,32.993171 6.83423981,32.9795129 C4.67441431,32.8190305 2.6925776,31.7297991 1.40215888,29.9849802 C0.33422615,28.5440534 -0.148397298,26.7446022 0.0398600753,24.9178348 C0.221271726,23.1388707 1.02564414,21.4589276 2.29894855,20.1887268 L7.0567258,15.4425461 C7.5256578,14.9747571 8.28211015,14.9747571 8.75104215,15.4425461 C9.21997416,15.9103352 9.21997416,16.6649437 8.75104215,17.1327328 L3.99326491,21.8789134 C2.15176551,23.7159243 1.86424516,26.5909489 3.32922981,28.561126 C4.21917376,29.759622 5.52670678,30.4834999 7.0122286,30.5927645 C7.13887447,30.603008 7.26552034,30.6064226 7.39216621,30.6064226 C8.72708212,30.6064226 10.0072323,30.0840012 10.951942,29.1450087 L15.8705937,24.2383457 C16.3395257,23.7705566 17.0959781,23.7705566 17.5649101,24.2383457 C18.0338421,24.7061347 18.0338421,25.4607433 17.5649101,25.9285323 L12.6428355,30.8351953 C11.2497309,32.2283188 9.36031147,33 7.39216621,33 Z M24.1736549,17.6301075 C23.7047229,17.1623184 23.7047229,16.4077099 24.1736549,15.9399208 L29.0067351,11.1186208 C30.8482345,9.28160987 31.1357548,6.40658534 29.6707702,4.43640819 C28.7808262,3.23791222 27.4732932,2.51403431 25.9911943,2.40476972 C24.5193639,2.29550513 23.0817621,2.82475549 22.048058,3.85252554 L17.0506805,8.83772247 C16.5817485,9.3055115 15.8252961,9.3055115 15.3563641,8.83772247 C14.8874321,8.36993345 14.8874321,7.61532487 15.3563641,7.14753584 L20.3537417,2.16233891 C21.8837607,0.639463681 24.0025118,-0.142461043 26.1691831,0.0214358423 C27.2200015,0.0999697666 28.219477,0.390203835 29.1436495,0.885309009 C30.1088964,1.40431581 30.9372289,2.12136469 31.5978411,3.01596852 C32.6657739,4.45689531 33.1483973,6.25634653 32.9601399,8.0831139 C32.7787283,9.86207801 31.9743559,11.5420211 30.7010514,12.8122219 L25.8645484,17.6301075 C25.6317938,17.8657092 25.3271592,17.9818029 25.0191016,17.9818029 C24.7110441,17.9818029 24.4064095,17.8657092 24.1736549,17.6301075 Z" id="形状"></path>
                </g>
            </g>
        </g>
    </g>
</svg>