<svg width="78" height="78" xmlns="http://www.w3.org/2000/svg"><g fill="none" fill-rule="evenodd"><rect width="78" height="78" rx="16.25" fill="#E9EEFD"/><path d="M36.871 39.118c.32 0 .638-.122.88-.367a1.245 1.245 0 0 0 0-1.765l-5.738-5.737a1.246 1.246 0 0 0-1.764 0 1.245 1.245 0 0 0 0 1.764l5.738 5.738c.246.245.563.367.884.367zm9 9c.32 0 .638-.122.88-.367a1.245 1.245 0 0 0 0-1.765l-5.738-5.737a1.246 1.246 0 0 0-1.764 0 1.245 1.245 0 0 0 0 1.764l5.738 5.738c.246.245.563.367.884.367zM29.392 56a7.435 7.435 0 0 1-5.99-3.015c-1.068-1.44-1.55-3.24-1.362-5.067a7.827 7.827 0 0 1 2.259-4.73l4.758-4.745a1.198 1.198 0 0 1 1.694 0 1.191 1.191 0 0 1 0 1.69l-4.758 4.746c-1.841 1.837-2.129 4.712-.664 6.682a4.983 4.983 0 0 0 4.063 2.045 5.045 5.045 0 0 0 3.56-1.461l4.919-4.907a1.198 1.198 0 0 1 1.694 0 1.191 1.191 0 0 1 0 1.69l-4.922 4.907A7.417 7.417 0 0 1 29.393 56zm16.782-15.37a1.191 1.191 0 0 1 0-1.69l4.833-4.821c1.841-1.837 2.129-4.712.664-6.683a4.983 4.983 0 0 0-3.68-2.031 5.056 5.056 0 0 0-3.943 1.448l-4.997 4.985a1.198 1.198 0 0 1-1.695 0 1.191 1.191 0 0 1 0-1.69l4.998-4.986a7.438 7.438 0 0 1 5.815-2.14 7.424 7.424 0 0 1 2.975.863 7.375 7.375 0 0 1 2.454 2.131c1.068 1.44 1.55 3.24 1.362 5.067a7.827 7.827 0 0 1-2.259 4.73l-4.836 4.817a1.18 1.18 0 0 1-.846.352 1.18 1.18 0 0 1-.845-.352z" fill="#AAA" fill-rule="nonzero"/></g></svg>