<?xml version="1.0" encoding="UTF-8"?>
<svg width="78px" height="78px" viewBox="0 0 78 78" version="1.1" xmlns="http://www.w3.org/2000/svg" xmlns:xlink="http://www.w3.org/1999/xlink">
    <title>编组 5</title>
    <g id="v2-更新" stroke="none" stroke-width="1" fill="none" fill-rule="evenodd">
        <g id="钱包交易首页（鼠标悬停在连接dapp&amp;账户设置按钮）" transform="translate(-522.000000, -360.000000)">
            <g id="编组-5" transform="translate(522.000000, 360.000000)">
                <g id="编组-3" fill="#E9EEFD">
                    <rect id="矩形" x="0" y="0" width="78" height="78" rx="16.25"></rect>
                </g>
                <g id="编组-2" transform="translate(22.000000, 22.000000)" fill-rule="nonzero">
                    <path d="M13.1162786,21.3529412 C12.7382092,21.3529412 12.3643405,21.2101304 12.0786881,20.9203085 C11.5031824,20.3448651 11.5031824,19.4165951 12.0786881,18.8411517 L18.8419301,12.0786414 C19.4174357,11.503198 20.3458062,11.503198 20.9213119,12.0786414 C21.4968176,12.6540848 21.4968176,13.5823549 20.9213119,14.1577983 L14.1580699,20.9203085 C13.8682167,21.2101304 13.4943481,21.3529412 13.1162786,21.3529412 L13.1162786,21.3529412 Z" id="路径" fill="#226DFF"></path>
                    <path d="M8.71219589,33 C8.49435521,33 8.27248045,32.9919515 8.05463978,32.9758545 C5.50913115,32.7867145 3.17339503,31.5029776 1.6525444,29.4465838 C0.39390939,27.7483487 -0.174896815,25.6275669 0.0469779459,23.4745911 C0.260784534,21.3779548 1.20879488,19.3980219 2.70947508,17.9009994 L8.3168554,12.3072865 C8.86952526,11.7559637 9.76105839,11.7559637 10.3137283,12.3072865 C10.8663981,12.8586093 10.8663981,13.7479694 10.3137283,14.2992922 L4.70634793,19.8930051 C2.53600936,22.0580537 2.19714608,25.4464755 3.92373513,27.76847 C4.97259764,29.1809831 6.51361871,30.0341249 8.26441228,30.162901 C8.41367348,30.1749738 8.56293468,30.178998 8.71219589,30.178998 C10.2854896,30.178998 11.794238,29.5632872 12.9076459,28.4566174 L18.7046283,22.6737645 C19.2572982,22.1224418 20.1488313,22.1224418 20.7015012,22.6737645 C21.254171,23.2250873 21.254171,24.1144474 20.7015012,24.6657702 L14.9004847,30.448623 C13.2586114,32.0905186 11.0317957,33 8.71219589,33 Z M23.5939412,21.1928391 C23.2308734,21.1928391 22.8718397,21.0560145 22.5975218,20.778341 C22.044852,20.2270182 22.044852,19.3376581 22.5975218,18.7863353 L28.2936521,13.1040888 C30.4639906,10.9390402 30.8028539,7.55061844 29.0762649,5.22862394 C28.0274024,3.81611083 26.4863813,2.96296901 24.7396218,2.83419288 C23.0049646,2.70541676 21.3106482,3.32917611 20.0923541,4.54047653 L14.2025877,10.4158872 C13.6499178,10.96721 12.7583847,10.96721 12.2057149,10.4158872 C11.653045,9.86456442 11.653045,8.97520431 12.2057149,8.42388153 L18.0954812,2.54847086 C19.8987179,0.753653624 22.3958175,-0.167900515 24.9493943,0.0252636712 C26.1878589,0.117821511 27.3658122,0.459883091 28.4550155,1.0433999 C29.5926279,1.65508649 30.5688769,2.50017981 31.3474556,3.55453433 C32.6060906,5.25276947 33.1748968,7.37355126 32.9530221,9.52652709 C32.7392155,11.6231634 31.7912125,13.6030963 30.2905249,15.1001187 L24.5903606,20.778341 C24.3160427,21.0560145 23.957009,21.1928391 23.5939412,21.1928391 L23.5939412,21.1928391 Z" id="形状" fill="#243F5F"></path>
                </g>
            </g>
        </g>
    </g>
</svg>