<svg width="78" height="78" xmlns="http://www.w3.org/2000/svg"><g fill="none" fill-rule="evenodd"><rect width="78" height="78" rx="16.25" fill="#E9EEFD"/><g fill-rule="nonzero"><path d="M35.116 43.353c-.378 0-.752-.143-1.037-.433a1.468 1.468 0 0 1 0-2.079l6.763-6.762a1.468 1.468 0 0 1 2.08 0 1.468 1.468 0 0 1 0 2.079l-6.764 6.762c-.29.29-.664.433-1.042.433z" fill="#0500e2"/><path d="M30.712 55a8.763 8.763 0 0 1-7.06-3.553c-1.258-1.699-1.827-3.82-1.605-5.972a9.225 9.225 0 0 1 2.662-5.574l5.608-5.594a1.412 1.412 0 0 1 1.997 0 1.405 1.405 0 0 1 0 1.992l-5.608 5.594c-2.17 2.165-2.509 5.553-.782 7.875a5.873 5.873 0 0 0 4.34 2.395 5.946 5.946 0 0 0 4.643-1.706l5.798-5.783a1.412 1.412 0 0 1 1.997 0c.552.551.552 1.44 0 1.992L36.9 52.449A8.741 8.741 0 0 1 30.712 55zm14.882-11.807a1.39 1.39 0 0 1-.996-.415 1.404 1.404 0 0 1 0-1.992l5.696-5.682c2.17-2.165 2.509-5.553.782-7.875a5.872 5.872 0 0 0-4.336-2.395 5.958 5.958 0 0 0-4.648 1.706l-5.89 5.876a1.412 1.412 0 0 1-1.996 0 1.404 1.404 0 0 1 0-1.992l5.89-5.876a8.767 8.767 0 0 1 6.853-2.523 8.753 8.753 0 0 1 3.506 1.018 8.692 8.692 0 0 1 2.892 2.512c1.26 1.698 1.828 3.819 1.606 5.972a9.225 9.225 0 0 1-2.662 5.573l-5.7 5.678a1.39 1.39 0 0 1-.997.415z" fill="#243F5F"/></g></g></svg>