<?xml version="1.0" encoding="UTF-8"?>
<svg xmlns="http://www.w3.org/2000/svg" xmlns:xlink="http://www.w3.org/1999/xlink" width="36px" height="36px" viewBox="0 0 36 36" version="1.1">
<g id="surface1">
<path style=" stroke:none;fill-rule:nonzero;fill:#999999;fill-opacity:1;" d="M 30.726562 5.527344 C 29.230469 4 27.457031 2.746094 25.496094 1.832031 C 25.417969 1.789062 25.335938 1.753906 25.253906 1.71875 C 24.867188 1.542969 24.476562 1.378906 24.078125 1.234375 C 22.960938 0.828125 21.792969 0.535156 20.585938 0.355469 C 19.742188 0.234375 18.878906 0.167969 18 0.167969 C 8.167969 0.167969 0.167969 8.167969 0.167969 18 C 0.167969 25.660156 5.023438 32.207031 11.820312 34.726562 C 12.617188 35.023438 13.445312 35.261719 14.292969 35.441406 C 15.488281 35.695312 16.730469 35.832031 18 35.832031 C 24.773438 35.832031 30.675781 32.035156 33.691406 26.460938 C 35.054688 23.941406 35.832031 21.058594 35.832031 18 C 35.832031 13.148438 33.882812 8.746094 30.726562 5.527344 Z M 5.488281 27.539062 C 3.378906 24.761719 2.265625 21.445312 2.265625 17.953125 C 2.265625 11.984375 5.574219 6.777344 10.449219 4.066406 C 10.578125 3.996094 10.707031 4.164062 10.597656 4.265625 C 10.152344 4.6875 9.726562 5.136719 9.316406 5.613281 C 6.492188 8.917969 4.863281 13.414062 4.847656 17.953125 C 4.847656 23.839844 8.789062 30.199219 15.152344 30.199219 C 20.835938 30.199219 25.457031 24.703125 25.457031 17.953125 C 25.457031 14.777344 24.390625 11.730469 22.574219 9.46875 C 22.511719 9.390625 22.585938 9.277344 22.683594 9.304688 C 25.757812 10.214844 28.050781 13.746094 28.050781 17.953125 C 28.050781 21.664062 26.707031 25.359375 24.355469 28.09375 C 21.921875 30.925781 18.652344 32.484375 15.152344 32.488281 C 11.46875 32.488281 7.941406 30.679688 5.484375 27.539062 Z M 30.796875 8.371094 C 32.902344 11.144531 34.011719 14.457031 34.007812 17.949219 C 34.007812 23.914062 30.703125 29.121094 25.824219 31.832031 C 25.695312 31.90625 25.566406 31.734375 25.675781 31.632812 C 26.121094 31.214844 26.546875 30.765625 26.957031 30.285156 C 29.785156 26.980469 31.410156 22.484375 31.425781 17.949219 C 31.425781 12.058594 27.484375 5.699219 21.121094 5.699219 C 15.441406 5.699219 10.820312 11.195312 10.820312 17.949219 C 10.820312 21.121094 11.882812 24.167969 13.699219 26.429688 C 13.761719 26.507812 13.6875 26.621094 13.589844 26.59375 C 10.519531 25.6875 8.222656 22.15625 8.222656 17.953125 C 8.222656 14.238281 9.570312 10.542969 11.917969 7.8125 C 14.355469 4.980469 17.625 3.417969 21.125 3.417969 C 24.808594 3.417969 28.332031 5.222656 30.796875 8.371094 Z M 23.59375 17.953125 C 23.59375 22.15625 21.546875 25.789062 18.621094 27.417969 C 18.257812 27.621094 17.808594 27.59375 17.472656 27.351562 L 16.847656 26.894531 C 14.277344 25.019531 12.683594 21.589844 12.683594 17.949219 C 12.683594 13.742188 14.726562 10.113281 17.65625 8.480469 C 18.019531 8.28125 18.464844 8.304688 18.800781 8.550781 L 19.425781 9.007812 C 21.996094 10.882812 23.59375 14.308594 23.59375 17.953125 Z M 23.59375 17.953125 "/>
</g>
</svg>
