<?xml version="1.0" encoding="UTF-8"?>
<svg width="36px" height="36px" viewBox="0 0 36 36" version="1.1" xmlns="http://www.w3.org/2000/svg" xmlns:xlink="http://www.w3.org/1999/xlink">
    <title>Fill-1</title>
    <g id="v4-paratime" stroke="none" stroke-width="1" fill="none" fill-rule="evenodd">
        <g id="钱包交易首页-oasis私钥匙账户" transform="translate(-215.000000, -142.000000)" fill="#999999" fill-rule="nonzero">
            <g id="编组-6" transform="translate(48.000000, 136.000000)">
                <path d="M199.347449,13.1305 C196.622411,9.644 192.622356,7.4375 188.198794,7.4375 C179.643676,7.4375 173.384589,15.3875 173.384589,24 C173.384589,30.004 177.369144,34.497 181.801706,34.497 C182.215712,34.497 182.626717,34.4595 183.031723,34.385 C180.063182,32.22 178.163655,28.2765 178.163655,24 C178.163655,17.1905 182.770219,11.884 188.198794,11.884 C194.119377,11.884 198.236434,17.7635 198.236434,24 C198.220934,28.606 196.578911,33.1855 193.689371,36.5645 C191.167335,39.514 187.90079,41.3845 184.309241,41.978 C184.309241,41.978 184.608744,42 185.00025,42 C194.941388,42 203,33.941 203,24 C203,19.916 201.638981,16.1505 199.347449,13.1305 Z M196.615411,24 C196.615411,17.9955 192.630856,13.5025 188.198794,13.5025 C187.784288,13.5025 187.373783,13.54 186.968277,13.615 C189.937319,15.78 191.836345,19.7235 191.836345,24 C191.836345,30.8095 187.230281,36.116 181.801706,36.116 C175.880623,36.116 171.764067,30.2365 171.764067,24 C171.779066,19.394 173.421589,14.8145 176.310629,11.4355 C178.833164,8.486 182.099709,6.6155 185.690759,6.022 C185.690759,6.022 185.391756,6 185.00025,6 C175.059112,6 167,14.059 167,24 C167,28.0835 168.361019,31.849 170.653051,34.87 C173.377589,38.3555 177.378144,40.5625 181.801706,40.5625 C190.356825,40.5625 196.615411,32.6125 196.615411,24 L196.615411,24 Z" id="Fill-1"></path>
            </g>
        </g>
    </g>
</svg>