<?xml version="1.0" encoding="UTF-8"?>
<svg width="34px" height="33px" viewBox="0 0 34 33" version="1.1" xmlns="http://www.w3.org/2000/svg">
    <title>模块</title>
    <g id="v4-new" stroke="none" stroke-width="1" fill="none" fill-rule="evenodd">
        <g id="钱包交易首页（无交易记录）" transform="translate(-440.000000, -1253.000000)" fill="#226DFF" fill-rule="nonzero" stroke="#226DFF">
            <g id="编组-2" transform="translate(0.000000, 1236.000000)">
                <g id="编组-7" transform="translate(407.000000, 18.000000)">
                    <g id="模块" transform="translate(34.000000, 0.000000)">
                        <path d="M16,17.13661 C15.8193277,17.1374674 15.6411169,17.0946968 15.4805195,17.0119217 L8.95584416,13.2301035 C8.62983985,13.0522096 8.42967104,12.7079193 8.43636364,12.336597 L8.43636364,4.79373984 C8.42967104,4.42241755 8.62983985,4.0781272 8.95584416,3.90023335 L15.4805195,0.139194386 C15.8019751,-0.0463981286 16.1980249,-0.0463981286 16.5194805,0.139194386 L23.0441558,3.90023335 C23.3701602,4.0781272 23.570329,4.42241755 23.5636364,4.79373984 L23.5636364,12.336597 C23.570329,12.7079193 23.3701602,13.0522096 23.0441558,13.2301035 L16.5194805,17.0119217 C16.3588831,17.0946968 16.1806723,17.1374674 16,17.13661 Z M10.5142857,11.7547788 L16,14.9132204 L21.4857143,11.7547788 L21.4857143,5.39633724 L16,2.21711646 L10.5142857,5.39633724 L10.5142857,11.7547788 Z M7.68831169,31.4950385 C7.50430116,31.5012334 7.32286952,31.4504326 7.16883117,31.349584 L0.519480519,27.588545 C0.199700436,27.394282 0.0031811994,27.0484081 0,26.6742593 L0,19.1521814 C0.0031811994,18.7780326 0.199700436,18.4321587 0.519480519,18.2378957 L7.06493506,14.4768567 C7.38639073,14.2912642 7.78244044,14.2912642 8.1038961,14.4768567 L14.6285714,18.2378957 C14.9483515,18.4321587 15.1448707,18.7780326 15.1480519,19.1521814 L15.1480519,26.6742593 C15.1448707,27.0484081 14.9483515,27.394282 14.6285714,27.588545 L8.1038961,31.349584 C7.97824599,31.4290711 7.83610584,31.4788201 7.68831169,31.4950385 L7.68831169,31.4950385 Z M2.07792208,26.0924411 L7.68831169,29.2508827 L13.0701299,26.0924411 L13.0701299,19.7547788 L7.68831169,16.575558 L2.07792208,19.7547788 L2.07792208,26.0924411 Z M24.4155844,31.4950385 C24.2322022,31.4962883 24.0521732,31.4458802 23.8961039,31.349584 L17.3714286,27.588545 C17.0516485,27.394282 16.8551293,27.0484081 16.8519481,26.6742593 L16.8519481,19.1521814 C16.8551293,18.7780326 17.0516485,18.4321587 17.3714286,18.2378957 L23.8961039,14.4768567 C24.2175596,14.2912642 24.6136093,14.2912642 24.9350649,14.4768567 L31.4805195,18.2378957 C31.8002996,18.4321587 31.9968188,18.7780326 32,19.1521814 L32,26.6742593 C31.9968188,27.0484081 31.8002996,27.394282 31.4805195,27.588545 L24.9350649,31.349584 C24.7810266,31.4504326 24.5995949,31.5012334 24.4155844,31.4950385 L24.4155844,31.4950385 Z M18.9298701,26.0924411 L24.4155844,29.2508827 L29.9220779,26.0924411 L29.9220779,19.7547788 L24.4155844,16.575558 L18.9298701,19.7547788 L18.9298701,26.0924411 Z" id="形状"></path>
                    </g>
                </g>
            </g>
        </g>
    </g>
</svg>