<?xml version="1.0" encoding="UTF-8"?>
<svg width="33px" height="32px" viewBox="0 0 33 32" version="1.1" xmlns="http://www.w3.org/2000/svg" xmlns:xlink="http://www.w3.org/1999/xlink">
    <title>编组</title>
    <g id="v4-paratime" stroke="none" stroke-width="1" fill="none" fill-rule="evenodd">
        <g id="显示eth地址，staking变灰" transform="translate(-249.000000, -1114.000000)" fill="#DDDDDD" fill-rule="nonzero">
            <g id="编组-2" transform="translate(0.000000, 1099.000000)">
                <g id="编组-6" transform="translate(223.000000, 15.000000)">
                    <g id="编组" transform="translate(26.000000, 0.000000)">
                        <path d="M4.77857391,15.5475478 C5.39297391,15.5475478 5.89161739,15.0489043 5.89161739,14.4345043 L5.89161739,2.32904348 C5.89161739,2.26671304 5.92723478,2.24 5.93613913,2.24 L20.9666783,2.24 L20.9666783,5.08493913 C20.9666783,6.43394783 22.0663652,7.53363478 23.4153739,7.53363478 L26.514087,7.53363478 L26.514087,14.4345043 C26.514087,15.0489043 27.0127304,15.5475478 27.6271304,15.5475478 C28.2415304,15.5475478 28.7401739,15.0489043 28.7401739,14.4345043 L28.7401739,6.4205913 C28.7401739,6.39833043 28.7401739,6.37606957 28.7357217,6.3538087 L28.7357217,6.336 C28.7357217,6.31373913 28.7312696,6.29147826 28.7268174,6.26921739 L28.7268174,6.26031304 C28.7223652,6.2336 28.717913,6.20688696 28.7134609,6.18462609 C28.6956522,6.10448696 28.6689391,6.0288 28.6377739,5.95311304 L28.6377739,5.94866087 C28.6244174,5.9264 28.615513,5.89968696 28.6021565,5.87742609 C28.6021565,5.87742609 28.6021565,5.87297391 28.5977043,5.87297391 C28.5843478,5.85071304 28.5754435,5.83290435 28.562087,5.81064348 C28.562087,5.8061913 28.5576348,5.8061913 28.5576348,5.80173913 C28.5442783,5.77947826 28.5309217,5.76166957 28.513113,5.7394087 C28.5086609,5.73495652 28.5086609,5.73050435 28.5042087,5.72605217 C28.4908522,5.70824348 28.4774957,5.69043478 28.459687,5.67262609 L28.4552348,5.66817391 L28.4018087,5.61474783 L28.3973565,5.61029565 L22.8499478,0.321113043 L22.8454957,0.31666087 C22.827687,0.298852174 22.8098783,0.285495652 22.7920696,0.267686957 L22.7876174,0.267686957 C22.7698087,0.254330435 22.752,0.236521739 22.7297391,0.223165217 C22.725287,0.218713043 22.7208348,0.218713043 22.7163826,0.21426087 C22.676313,0.183095652 22.6317913,0.160834783 22.5872696,0.134121739 C22.5872696,0.134121739 22.5828174,0.134121739 22.5828174,0.129669565 C22.5382957,0.107408696 22.4893217,0.0851478261 22.4358957,0.0673391304 C22.3869217,0.0495304348 22.3379478,0.036173913 22.2845217,0.0272695652 L22.2756174,0.0272695652 C22.2533565,0.0228173913 22.2266435,0.0183652174 22.1999304,0.0183652174 C22.1776696,0.0139130435 22.1509565,0.0139130435 22.1286957,0.0139130435 L5.93613913,0.0139130435 C4.68507826,0.0139130435 3.66553043,1.05126957 3.66553043,2.32904348 L3.66553043,14.4300522 C3.66553043,15.0489043 4.16417391,15.5475478 4.77857391,15.5475478 Z M23.4153739,5.30754783 C23.2951652,5.30754783 23.1927652,5.20514783 23.1927652,5.08493913 L23.1927652,3.72702609 L24.8489739,5.30754783 L23.4153739,5.30754783 Z" id="形状"></path>
                        <path d="M31.9635478,23.4590609 L23.9986087,17.1948522 C23.8828522,17.1013565 23.7448348,17.0345739 23.6023652,16.9945043 C20.7173565,16.2153739 13.9456,14.3855304 13.3846261,14.3053913 C12.3606261,14.1540174 10.9982609,14.9019826 10.4729043,15.9081739 C9.92083478,16.9633391 10.0499478,18.5661217 11.358887,19.5856696 C11.5280696,19.7192348 11.9065043,20.0130783 14.9473391,21.4199652 L9.8317913,21.3398261 C7.96187826,19.5767652 5.1570087,16.9366261 5.03234783,16.8297739 C4.5069913,16.3756522 3.48744348,16.2554435 3.0733913,16.2242783 C2.04493913,16.1485913 1.27026087,16.3266783 0.776069565,16.7629913 C0.161669565,17.3017043 -0.0921043478,18.1743304 0.0503652174,19.2873739 C0.126052174,19.879513 0.34866087,20.7254261 0.722643478,21.1528348 C0.762713043,21.2018087 0.829495652,21.2730435 8.50949565,28.6547478 C8.78107826,28.9174261 9.14170435,29.0643478 9.52013913,29.0643478 L22.7831652,29.0643478 L24.5595826,31.1835826 C24.9202087,31.6154435 25.4455652,31.860313 26.0065391,31.860313 L26.0510609,31.860313 C26.6298435,31.8469565 27.1596522,31.5753739 27.5113739,31.1168 L32.1549913,25.0173217 C32.5289739,24.5231304 32.4399304,23.8330435 31.9635478,23.4590609 Z M25.9976348,29.4249739 L24.158887,27.2300522 C23.9451826,26.9762783 23.6335304,26.8338087 23.3040696,26.8338087 L9.8317913,26.8338087 C7.36973913,24.4652522 3.1090087,20.3692522 2.44118261,19.7192348 C2.30316522,19.4075826 2.19631304,18.7353043 2.25864348,18.4548174 C2.58810435,18.3835826 3.33606957,18.4548174 3.63881739,18.5661217 C4.1330087,19.0291478 6.81321739,21.5490783 8.61634783,23.2498087 C8.81669565,23.4412522 9.08382609,23.5481043 9.35986087,23.5525565 L20.3122087,23.7261913 C20.8420174,23.7350957 21.3050435,23.3700174 21.4163478,22.849113 C21.5276522,22.3326609 21.2605217,21.8073043 20.7752348,21.5936 C17.2179478,20.0397913 13.2332522,18.2054957 12.7168,17.8226087 C12.280487,17.4842435 12.3650783,17.0657391 12.436313,16.9321739 C12.5209043,16.7674435 12.894887,16.5359304 13.0774261,16.5092174 C13.7942261,16.6605913 19.2793043,18.1298087 22.7965217,19.0825739 L29.7196522,24.5275826 L25.9976348,29.4249739 L25.9976348,29.4249739 Z M8.40709565,7.81412174 L19.4707478,7.81412174 C20.0851478,7.81412174 20.5837913,7.31547826 20.5837913,6.70107826 C20.5837913,6.08667826 20.0851478,5.58803478 19.4707478,5.58803478 L8.40709565,5.58803478 C7.79269565,5.58803478 7.29405217,6.08667826 7.29405217,6.70107826 C7.29405217,7.31547826 7.79269565,7.81412174 8.40709565,7.81412174 Z M8.40709565,12.4978087 L23.9941565,12.4978087 C24.6085565,12.4978087 25.1072,11.9991652 25.1072,11.3847652 C25.1072,10.7703652 24.6085565,10.2717217 23.9941565,10.2717217 L8.40709565,10.2717217 C7.79269565,10.2717217 7.29405217,10.7703652 7.29405217,11.3847652 C7.29405217,11.9991652 7.79269565,12.4978087 8.40709565,12.4978087 Z" id="形状"></path>
                    </g>
                </g>
            </g>
        </g>
    </g>
</svg>