<svg width="32" height="32" xmlns="http://www.w3.org/2000/svg"><g fill="none" fill-rule="evenodd"><circle cx="16" cy="16" r="16" fill="#FF80D9"/><g fill-rule="nonzero"><path d="M9.684 7h11.632C22.798 7 24 8.16 24 9.59v13.82c0 1.43-1.202 2.59-2.684 2.59H9.684C8.202 26 7 24.84 7 23.41V9.59C7 8.16 8.202 7 9.684 7z" fill="#FFF"/><path d="M20.308 20.696c.382 0 .692.292.692.652 0 .36-.31.652-.692.652H9.692C9.31 22 9 21.708 9 21.348c0-.36.31-.652.692-.652h10.616zm0-4.348c.382 0 .692.292.692.652 0 .36-.31.652-.692.652H9.692C9.31 17.652 9 17.36 9 17c0-.36.31-.652.692-.652h10.616zM15.692 12c.383 0 .693.292.693.652 0 .36-.31.652-.693.652h-6c-.382 0-.692-.292-.692-.652 0-.36.31-.652.692-.652h6z" fill="#FF80D9"/></g></g></svg>