<?xml version="1.0" encoding="UTF-8"?>
<svg width="32px" height="32px" viewBox="0 0 32 32" version="1.1" xmlns="http://www.w3.org/2000/svg" xmlns:xlink="http://www.w3.org/1999/xlink">
    <title>编组 12</title>
    <g id="v2-更新" stroke="none" stroke-width="1" fill="none" fill-rule="evenodd">
        <g id="钱包交易首页（有交易记录）" transform="translate(-48.000000, -1013.000000)">
            <g id="编组-12" transform="translate(48.000000, 1013.000000)">
                <g id="编组-19" fill="#FF80D9">
                    <circle id="椭圆形" cx="16" cy="16" r="16"></circle>
                </g>
                <g id="记录，文本" transform="translate(7.000000, 7.000000)" fill-rule="nonzero">
                    <path d="M2.68421053,0 L14.3157895,0 C15.798238,0 17,1.15998951 17,2.59090909 L17,16.4090909 C17,17.8400105 15.798238,19 14.3157895,19 L2.68421053,19 C1.20176199,19 0,17.8400105 0,16.4090909 L0,2.59090909 C0,1.15998951 1.20176199,0 2.68421053,0 Z" id="路径" fill="#FFFFFF"></path>
                    <path d="M13.3076923,13.6956522 C13.6900433,13.6956522 14,13.9876404 14,14.3478261 C14,14.7080118 13.6900433,15 13.3076923,15 L2.69230769,15 C2.30995671,15 2,14.7080118 2,14.3478261 C2,13.9876404 2.30995671,13.6956522 2.69230769,13.6956522 L13.3076923,13.6956522 L13.3076923,13.6956522 Z M13.3076923,9.34782609 C13.6900433,9.34782609 14,9.63981429 14,10 C14,10.3601857 13.6900433,10.6521739 13.3076923,10.6521739 L2.69230769,10.6521739 C2.30995671,10.6521739 2,10.3601857 2,10 C2,9.63981429 2.30995671,9.34782609 2.69230769,9.34782609 L13.3076923,9.34782609 L13.3076923,9.34782609 Z M8.69230769,5 C9.07465867,5 9.38461538,5.29198821 9.38461538,5.65217391 C9.38461538,6.01235962 9.07465867,6.30434783 8.69230769,6.30434783 L2.69230769,6.30434783 C2.30995671,6.30434783 2,6.01235962 2,5.65217391 C2,5.29198821 2.30995671,5 2.69230769,5 L8.69230769,5 Z" id="形状" fill="#FF80D9"></path>
                </g>
            </g>
        </g>
    </g>
</svg>