<?xml version="1.0" encoding="UTF-8"?>
<svg width="34px" height="30px" viewBox="0 0 34 30" version="1.1" xmlns="http://www.w3.org/2000/svg" xmlns:xlink="http://www.w3.org/1999/xlink">
    <title>形状</title>
    <g id="v4-paratime" stroke="none" stroke-width="1" fill="none" fill-rule="evenodd">
        <g id="当前账户为eth兼容账户时" transform="translate(-99.000000, -276.000000)" fill="#999999" fill-rule="nonzero">
            <g id="编组-11" transform="translate(48.000000, 252.000000)">
                <g id="编组-4" transform="translate(51.605505, 19.000000)">
                    <g id="编组" transform="translate(0.000000, 5.033700)">
                        <path d="M19.590287,29.8177847 L19.5613078,29.8177847 C18.5056374,29.8066461 17.5865832,29.2237253 17.2222734,28.3326362 L14.4112921,21.44526 C13.5460564,19.3289234 11.6955282,17.6692699 9.33579435,16.8932798 L1.65630953,14.3722402 C0.662737365,14.0455075 0.0127755766,13.224963 0.000175379624,12.2744679 C-0.0120637274,11.3276857 0.617198641,10.4922897 1.60249103,10.1432798 L30.0434941,0.144517417 C30.9128698,-0.159938028 31.8981622,0.0257055361 32.5564037,0.616052071 C33.2146453,1.20639861 33.4216395,2.09006197 33.082169,2.86976494 L21.9293215,28.3771907 C21.552592,29.2534283 20.6335378,29.8177847 19.590287,29.8177847 Z M3.64345385,12.2410521 L10.3376463,14.4390719 C13.5087974,15.4786758 15.9927278,17.7063986 17.1518953,20.5467451 L19.6027067,26.550458 L29.8903184,3.01085405 L3.64345385,12.2410521 Z" id="形状"></path>
                    </g>
                </g>
            </g>
        </g>
    </g>
</svg>