<?xml version="1.0" encoding="UTF-8"?>
<svg width="25px" height="26px" viewBox="0 0 25 26" version="1.1" xmlns="http://www.w3.org/2000/svg">
    <title>路径</title>
    <g id="v4-new" stroke="none" stroke-width="1" fill="none" fill-rule="evenodd">
        <g id="钱包交易首页（无交易记录）" transform="translate(-609.000000, -522.000000)" fill="#FFFFFF" fill-rule="nonzero">
            <path d="M623.103229,547.365618 C622.217712,548.211461 620.782288,548.211461 619.896771,547.365618 L609.692344,537.615445 C609.102853,537.07144 608.866436,536.265852 609.073961,535.508308 C609.281486,534.750763 609.900657,534.159155 610.693495,533.960868 C611.486332,533.762581 612.329453,533.988474 612.898802,534.551723 L619.232349,540.603331 L619.232349,524.166705 C619.232349,522.970067 620.247611,522 621.5,522 C622.752389,522 623.767651,522.970067 623.767651,524.166705 L623.767651,540.603331 L630.101198,534.551723 C630.670547,533.988474 631.513668,533.762581 632.306505,533.960868 C633.099343,534.159155 633.718514,534.750763 633.926039,535.508308 C634.133564,536.265852 633.897147,537.07144 633.307656,537.615445 L623.103229,547.365618 Z" id="路径"></path>
        </g>
    </g>
</svg>